<svg width="16" height="16" viewBox="0 0 16 16" fill="none" xmlns="http://www.w3.org/2000/svg">
<path d="M8.00003 8C6.90003 8 5.95836 7.60833 5.17503 6.825C4.3917 6.04167 4.00003 5.1 4.00003 4C4.00003 2.9 4.3917 1.95833 5.17503 1.175C5.95836 0.391667 6.90003 0 8.00003 0C9.10003 0 10.0417 0.391667 10.825 1.175C11.6084 1.95833 12 2.9 12 4C12 5.1 11.6084 6.04167 10.825 6.825C10.0417 7.60833 9.10003 8 8.00003 8V8M3.05176e-05 16V13.2C3.05176e-05 12.6333 0.145864 12.1125 0.437531 11.6375C0.729197 11.1625 1.1167 10.8 1.60003 10.55C2.63336 10.0333 3.68336 9.64583 4.75003 9.3875C5.8167 9.12917 6.90003 9 8.00003 9C9.10003 9 10.1834 9.12917 11.25 9.3875C12.3167 9.64583 13.3667 10.0333 14.4 10.55C14.8834 10.8 15.2709 11.1625 15.5625 11.6375C15.8542 12.1125 16 12.6333 16 13.2V16H3.05176e-05V16M2.00003 14H14V13.2C14 13.0167 13.9542 12.85 13.8625 12.7C13.7709 12.55 13.65 12.4333 13.5 12.35C12.6 11.9 11.6917 11.5625 10.775 11.3375C9.85836 11.1125 8.93336 11 8.00003 11C7.0667 11 6.1417 11.1125 5.22503 11.3375C4.30836 11.5625 3.40003 11.9 2.50003 12.35C2.35003 12.4333 2.2292 12.55 2.13753 12.7C2.04586 12.85 2.00003 13.0167 2.00003 13.2V14V14M8.00003 6C8.55003 6 9.02086 5.80417 9.41253 5.4125C9.8042 5.02083 10 4.55 10 4C10 3.45 9.8042 2.97917 9.41253 2.5875C9.02086 2.19583 8.55003 2 8.00003 2C7.45003 2 6.9792 2.19583 6.58753 2.5875C6.19586 2.97917 6.00003 3.45 6.00003 4C6.00003 4.55 6.19586 5.02083 6.58753 5.4125C6.9792 5.80417 7.45003 6 8.00003 6V6M8.00003 4V4V4V4V4V4V4V4V4V4M8.00003 14V14V14V14V14V14V14V14V14V14V14V14V14" fill="currentColor"/>
</svg>
